<?xml version="1.0" standalone="no"?> <!DOCTYPE svg PUBLIC "-//W3C//DTD SVG 20010904//EN" "http://www.w3.org/TR/2001/REC-SVG-20010904/DTD/svg10.dtd"> <svg version="1.0" xmlns="http://www.w3.org/2000/svg" width="600.000000pt" height="400.000000pt" viewBox="0 0 600.000000 400.000000" preserveAspectRatio="xMidYMid meet"> <g transform="translate(0.000000,400.000000) scale(0.100000,-0.100000)" fill="#009dff" stroke="none"> <path d="M1148 2571 c-200 -64 -328 -240 -328 -450 0 -263 208 -467 475 -464 355 4 575 351 426 670 -32 67 -105 152 -161 188 -19 12 -65 34 -102 48 -56 23 -81 27 -160 26 -61 0 -112 -6 -150 -18z m252 -24 c14 -2 31 -5 38 -5 7 -1 10 -7 6 -13 -4 -8 1 -9 17 -4 19 5 21 4 9 -4 -13 -9 -12 -11 5 -12 11 -1 26 -2 32 -2 7 1 10 -3 7 -8 -3 -5 2 -9 10 -9 9 0 16 -5 16 -11 0 -5 5 -7 12 -3 7 5 8 3 3 -6 -6 -10 -4 -12 8 -7 11 4 14 2 10 -9 -4 -11 0 -15 13 -12 12 2 18 -2 16 -10 -1 -8 2 -11 7 -8 12 8 86 -108 105 -165 22 -66 31 -145 17 -153 -6 -4 -18 3 -28 14 -28 33 -68 51 -82 37 -8 -8 -11 -7 -11 6 0 9 4 17 8 17 4 0 8 8 9 18 4 56 9 82 17 82 5 0 3 7 -4 15 -7 9 -10 18 -6 22 3 3 -1 17 -10 31 -8 13 -13 26 -10 29 7 8 -65 83 -96 99 -15 8 -36 14 -48 14 -11 0 -20 5 -20 11 0 5 -4 8 -8 5 -4 -2 -29 -7 -55 -10 -62 -7 -113 -29 -127 -55 -6 -12 -17 -21 -25 -21 -8 0 -18 -12 -21 -27 -4 -16 -11 -33 -16 -40 -22 -28 -9 -172 18 -194 25 -21 17 -38 -13 -30 -36 10 -101 5 -119 -10 -8 -6 -14 -9 -14 -6 0 3 -12 -5 -26 -18 -15 -14 -32 -25 -39 -25 -7 0 -18 -7 -25 -15 -7 -8 -16 -12 -21 -9 -5 3 -9 0 -9 -5 0 -6 -6 -11 -13 -11 -34 0 -57 -54 -32 -72 6 -4 2 -8 -9 -8 -12 0 -16 5 -12 15 3 8 1 15 -5 15 -6 0 -9 7 -5 15 3 8 1 15 -4 15 -16 0 -23 124 -9 186 7 32 12 63 11 67 -2 5 6 20 16 35 10 15 22 34 26 42 32 70 117 152 158 155 4 0 14 9 23 20 9 11 14 15 11 8 -4 -8 4 -7 23 3 59 30 168 38 271 21z m65 -88 c31 -8 56 -24 84 -54 86 -94 74 -209 -31 -285 -34 -25 -50 -30 -100 -30 -116 0 -189 66 -196 175 -5 71 8 102 60 152 50 48 108 61 183 42z m210 -349 c19 -20 18 -22 -61 -101 -95 -96 -205 -169 -255 -169 -19 0 -68 9 -109 20 -96 25 -151 25 -200 0 -22 -11 -43 -20 -49 -20 -5 0 -24 30 -42 68 -18 37 -35 70 -37 74 -2 4 19 18 47 32 28 14 72 39 98 56 60 38 116 39 207 5 40 -15 87 -25 119 -25 63 0 90 -16 85 -51 -3 -23 -7 -24 -76 -27 -40 -2 -89 2 -109 7 -20 6 -40 8 -46 4 -20 -12 28 -25 117 -30 111 -7 136 2 136 50 0 28 9 39 62 80 69 52 86 56 113 27z m60 -30 c3 -5 1 -10 -5 -10 -7 0 -11 -14 -10 -32 3 -50 1 -60 -10 -53 -6 3 -7 -1 -4 -9 3 -9 1 -16 -5 -16 -7 0 -11 -8 -9 -17 2 -11 -2 -17 -10 -15 -8 1 -11 -2 -7 -7 8 -14 -20 -67 -40 -74 -8 -4 -15 -14 -15 -23 0 -10 -2 -15 -5 -12 -3 3 -20 -8 -37 -23 -16 -16 -41 -32 -54 -35 -13 -3 -24 -10 -24 -16 0 -5 -4 -7 -9 -3 -5 3 -12 1 -16 -5 -11 -17 -111 -41 -176 -41 -68 -1 -179 20 -179 33 0 4 -9 8 -20 8 -11 0 -20 4 -20 9 0 5 -11 12 -25 15 -14 4 -23 10 -20 15 2 5 -2 11 -10 15 -8 3 -15 13 -14 23 0 16 1 16 9 -2 7 -16 9 -17 9 -3 1 24 78 50 127 44 21 -3 70 -12 109 -21 38 -8 83 -15 100 -15 36 0 102 30 131 58 12 12 24 19 27 16 3 -3 39 28 81 69 42 41 78 72 80 69 3 -2 8 7 12 22 3 14 10 26 16 26 5 0 6 5 3 10 -3 6 -2 10 4 10 5 0 13 -4 16 -10z"/> <path d="M1390 2389 c0 -6 -11 -20 -25 -31 -24 -19 -32 -52 -17 -74 4 -5 25 -17 46 -25 22 -8 41 -19 43 -25 6 -19 -27 -25 -56 -9 -21 10 -31 11 -40 2 -18 -18 -13 -27 19 -38 17 -6 30 -17 30 -25 0 -8 9 -14 20 -14 11 0 20 4 20 9 0 5 13 23 30 39 40 40 30 71 -29 92 -55 20 -55 42 1 38 34 -2 43 1 46 14 2 12 -5 19 -22 24 -14 3 -26 12 -26 20 0 8 -9 14 -20 14 -11 0 -20 -5 -20 -11z"/> <path d="M3376 2344 c-21 -20 -20 -27 5 -50 15 -14 24 -16 37 -8 22 14 27 41 12 59 -16 19 -35 19 -54 -1z"/> <path d="M3520 2160 c0 -110 -1 -203 -2 -207 -2 -5 12 -9 30 -11 27 -3 32 0 32 17 0 12 5 21 10 21 6 0 10 -4 10 -8 0 -14 48 -32 82 -32 44 0 105 38 120 74 17 43 15 125 -5 163 -22 41 -64 63 -122 63 -32 0 -51 -6 -65 -20 -11 -11 -23 -20 -26 -20 -4 0 -4 36 -1 80 l5 80 -34 0 -34 0 0 -200z m202 3 c22 -21 28 -36 28 -69 0 -61 -29 -94 -85 -94 -60 0 -89 35 -82 100 9 82 83 116 139 63z"/> <path d="M4442 2348 c-18 -18 -14 -46 7 -58 11 -5 22 -10 25 -10 8 0 36 31 36 40 0 13 -30 40 -44 40 -6 0 -17 -5 -24 -12z"/> <path d="M2968 2333 c0 -5 -1 -28 -2 -53 -1 -43 -2 -45 -28 -42 -24 3 -28 0 -28 -22 0 -22 4 -26 31 -26 l30 0 -2 -122 -3 -123 32 -3 32 -3 0 125 0 126 30 0 c26 0 30 4 30 26 0 24 -3 26 -30 21 l-30 -6 0 54 c0 54 0 55 -30 55 -16 0 -31 -3 -32 -7z m52 -124 c0 -5 -7 -9 -15 -9 -8 0 -15 7 -15 15 0 9 6 12 15 9 8 -4 15 -10 15 -15z"/> <path d="M4257 2333 c-4 -3 -7 -28 -7 -55 0 -47 -1 -48 -25 -42 -22 5 -25 3 -25 -20 0 -22 5 -26 28 -26 l27 0 -3 -125 -4 -125 37 0 36 0 -2 123 -1 122 31 0 c28 0 31 3 31 29 0 26 -3 28 -30 24 l-30 -5 0 54 c0 52 -1 53 -28 53 -16 0 -32 -3 -35 -7z m43 -121 c0 -10 -7 -19 -15 -19 -27 0 -18 27 13 36 1 1 2 -7 2 -17z"/> <path d="M2037 2239 c-41 -7 -81 -38 -104 -83 -20 -38 -12 -118 14 -154 44 -60 147 -81 211 -42 35 21 39 32 19 48 -10 9 -24 6 -54 -9 -38 -18 -44 -19 -76 -6 -46 20 -67 52 -67 103 0 83 79 129 150 87 24 -14 31 -14 44 -4 21 18 20 24 -6 40 -31 20 -86 28 -131 20z"/> <path d="M2340 2240 c-80 -14 -127 -81 -117 -166 6 -55 31 -93 78 -116 83 -43 182 -7 214 76 46 120 -46 228 -175 206z m86 -58 c53 -43 60 -118 15 -163 -77 -77 -200 13 -157 115 26 62 96 86 142 48z"/> <path d="M3270 2239 c-14 -5 -33 -20 -42 -32 l-18 -22 0 28 c0 23 -4 27 -30 27 l-30 0 0 -140 c0 -77 -1 -143 -2 -147 -2 -5 12 -9 30 -11 l32 -3 0 101 c0 94 2 103 25 125 15 16 36 25 55 25 28 0 31 3 28 27 -4 31 -13 35 -48 22z"/> <path d="M2590 2090 l0 -150 30 0 30 0 0 109 c0 106 1 110 26 130 32 25 71 27 102 5 21 -14 22 -23 22 -130 l0 -114 31 0 31 0 -4 124 c-3 116 -5 126 -27 150 -20 22 -34 26 -76 26 -37 0 -60 -6 -78 -20 -14 -11 -28 -20 -31 -20 -3 0 -6 9 -6 20 0 15 -7 20 -25 20 l-25 0 0 -150z"/> <path d="M3372 2093 l3 -148 33 -3 32 -3 0 150 0 151 -35 0 -36 0 3 -147z"/> <path d="M3872 2120 c3 -114 4 -121 29 -146 37 -37 106 -44 154 -16 34 21 35 21 35 2 0 -16 7 -20 35 -20 l35 0 0 150 0 150 -35 0 -35 0 0 -90 c0 -49 -5 -100 -11 -114 -22 -48 -103 -55 -131 -12 -4 6 -8 57 -8 114 l0 102 -36 0 -36 0 4 -120z"/> <path d="M4440 2238 c0 -2 -1 -68 -2 -148 l-1 -145 31 -3 32 -3 0 150 0 151 -30 0 c-16 0 -30 -1 -30 -2z"/> <path d="M4630 2218 c-70 -47 -88 -130 -45 -203 40 -68 121 -93 199 -61 92 39 114 165 42 244 -31 33 -39 36 -97 40 -55 3 -69 0 -99 -20z m145 -50 c39 -35 43 -99 7 -140 -22 -24 -36 -30 -67 -30 -53 0 -85 36 -85 96 0 85 83 127 145 74z"/> <path d="M4930 2090 l0 -150 35 0 35 0 0 105 c0 121 12 145 75 145 63 0 75 -24 75 -145 l0 -105 35 0 35 0 0 93 c0 161 -28 207 -125 207 -39 0 -56 -5 -70 -20 -10 -11 -22 -20 -27 -20 -4 0 -8 9 -8 20 0 16 -7 20 -30 20 l-30 0 0 -150z"/> </g> </svg>